<mxfile host="65bd71144e" pages="3">
    <diagram id="3fwowlf9j1TdNnala_Y5" name="Architecture">
        <mxGraphModel dx="531" dy="437" grid="1" gridSize="10" guides="1" tooltips="1" connect="1" arrows="1" fold="1" page="1" pageScale="1" pageWidth="827" pageHeight="1169" math="0" shadow="0">
            <root>
                <mxCell id="0"/>
                <mxCell id="1" parent="0"/>
                <mxCell id="t5uwx31abI5WNG6DlKdW-1" value="&lt;b&gt;1&lt;/b&gt;&lt;br&gt;Client&lt;br style=&quot;font-size: 20px&quot;&gt;Interface utilisateur&lt;br style=&quot;font-size: 20px&quot;&gt;(UI)" style="rounded=0;whiteSpace=wrap;html=1;fontSize=20;" parent="1" vertex="1">
                    <mxGeometry x="120" y="120" width="200" height="120" as="geometry"/>
                </mxCell>
                <mxCell id="t5uwx31abI5WNG6DlKdW-2" value="&lt;b&gt;2&lt;/b&gt;&lt;br&gt;Serveur d'application" style="rounded=0;whiteSpace=wrap;html=1;fontSize=20;" parent="1" vertex="1">
                    <mxGeometry x="520" y="120" width="200" height="120" as="geometry"/>
                </mxCell>
                <mxCell id="t5uwx31abI5WNG6DlKdW-3" value="&lt;b&gt;3&lt;/b&gt;&lt;br&gt;Serveur de données" style="rounded=0;whiteSpace=wrap;html=1;fontSize=20;" parent="1" vertex="1">
                    <mxGeometry x="320" y="280" width="200" height="120" as="geometry"/>
                </mxCell>
                <mxCell id="t5uwx31abI5WNG6DlKdW-4" value="Architecture 3-tiers" style="rounded=0;whiteSpace=wrap;html=1;fontSize=20;fillColor=#f5f5f5;strokeColor=#666666;fontColor=#333333;" parent="1" vertex="1">
                    <mxGeometry x="40" y="40" width="760" height="40" as="geometry"/>
                </mxCell>
                <mxCell id="t5uwx31abI5WNG6DlKdW-5" value="Dans le cas d'un site Internet :" style="rounded=0;whiteSpace=wrap;html=1;fontSize=20;" parent="1" vertex="1">
                    <mxGeometry x="40" y="480" width="760" height="40" as="geometry"/>
                </mxCell>
                <mxCell id="t5uwx31abI5WNG6DlKdW-6" value="Interface utilisateur" style="rounded=0;whiteSpace=wrap;html=1;fontSize=16;fontStyle=1" parent="1" vertex="1">
                    <mxGeometry x="80" y="600" width="200" height="40" as="geometry"/>
                </mxCell>
                <mxCell id="t5uwx31abI5WNG6DlKdW-7" value="Tier 1" style="rounded=0;whiteSpace=wrap;html=1;fontSize=16;fontStyle=1" parent="1" vertex="1">
                    <mxGeometry x="80" y="560" width="200" height="40" as="geometry"/>
                </mxCell>
                <mxCell id="t5uwx31abI5WNG6DlKdW-8" value="Machine de l'utilisateur" style="rounded=0;whiteSpace=wrap;html=1;fontSize=16;" parent="1" vertex="1">
                    <mxGeometry x="80" y="640" width="200" height="40" as="geometry"/>
                </mxCell>
                <mxCell id="t5uwx31abI5WNG6DlKdW-9" value="navigateur Internet&lt;br&gt;(Firefox, Chrome, Edge, ...)" style="rounded=0;whiteSpace=wrap;html=1;fontSize=16;" parent="1" vertex="1">
                    <mxGeometry x="80" y="680" width="200" height="200" as="geometry"/>
                </mxCell>
                <mxCell id="t5uwx31abI5WNG6DlKdW-10" value="Serveur d'application" style="rounded=0;whiteSpace=wrap;html=1;fontSize=16;fontStyle=1" parent="1" vertex="1">
                    <mxGeometry x="320" y="600" width="200" height="40" as="geometry"/>
                </mxCell>
                <mxCell id="t5uwx31abI5WNG6DlKdW-11" value="Tier 2" style="rounded=0;whiteSpace=wrap;html=1;fontSize=16;fontStyle=1" parent="1" vertex="1">
                    <mxGeometry x="320" y="560" width="200" height="40" as="geometry"/>
                </mxCell>
                <mxCell id="t5uwx31abI5WNG6DlKdW-12" value="Ordinateur dans un datacenter" style="rounded=0;whiteSpace=wrap;html=1;fontSize=16;" parent="1" vertex="1">
                    <mxGeometry x="320" y="640" width="200" height="40" as="geometry"/>
                </mxCell>
                <mxCell id="t5uwx31abI5WNG6DlKdW-13" value="&lt;span style=&quot;font-size: 16px&quot;&gt;→ Interprêteur Python &lt;br&gt;+ package Django &lt;br&gt;+ le code de l'application&lt;br&gt;&lt;/span&gt;&lt;br style=&quot;font-size: 16px&quot;&gt;&lt;span style=&quot;font-size: 16px&quot;&gt;→&amp;nbsp; serveur web&lt;br&gt;(IIS sous Windows, &lt;br&gt;Apache sous Linux, ...)&lt;/span&gt;" style="rounded=0;whiteSpace=wrap;html=1;fontSize=16;" parent="1" vertex="1">
                    <mxGeometry x="320" y="680" width="200" height="200" as="geometry"/>
                </mxCell>
                <mxCell id="t5uwx31abI5WNG6DlKdW-16" value="Serveur de données" style="rounded=0;whiteSpace=wrap;html=1;fontSize=16;fontStyle=1" parent="1" vertex="1">
                    <mxGeometry x="560" y="600" width="200" height="40" as="geometry"/>
                </mxCell>
                <mxCell id="t5uwx31abI5WNG6DlKdW-17" value="Tier 3" style="rounded=0;whiteSpace=wrap;html=1;fontSize=16;fontStyle=1" parent="1" vertex="1">
                    <mxGeometry x="560" y="560" width="200" height="40" as="geometry"/>
                </mxCell>
                <mxCell id="t5uwx31abI5WNG6DlKdW-18" value="Ordinateur dans un datacenter" style="rounded=0;whiteSpace=wrap;html=1;fontSize=16;" parent="1" vertex="1">
                    <mxGeometry x="560" y="640" width="200" height="40" as="geometry"/>
                </mxCell>
                <mxCell id="t5uwx31abI5WNG6DlKdW-19" value="&lt;span style=&quot;font-size: 16px&quot;&gt;→ I'application de base de données (serveur SQL -&amp;nbsp;&lt;br&gt;MySQL, PostgreSQL, Oracle, SQL Serveur)&lt;br&gt;&lt;/span&gt;&lt;br style=&quot;font-size: 16px&quot;&gt;&lt;span style=&quot;font-size: 16px&quot;&gt;→&amp;nbsp; Base de données&lt;br&gt;(architecture - modèle,&lt;br&gt;données - contenu)&lt;br&gt;&lt;/span&gt;" style="rounded=0;whiteSpace=wrap;html=1;fontSize=16;" parent="1" vertex="1">
                    <mxGeometry x="560" y="680" width="200" height="200" as="geometry"/>
                </mxCell>
            </root>
        </mxGraphModel>
    </diagram>
    <diagram id="xm1BHi7uaSfXYDnm-4M7" name="Modèle de données">
        <mxGraphModel dx="531" dy="437" grid="1" gridSize="10" guides="1" tooltips="1" connect="1" arrows="1" fold="1" page="1" pageScale="1" pageWidth="827" pageHeight="1169" math="0" shadow="0">
            <root>
                <mxCell id="RkSsTfMrb2YXSXwpdujd-0"/>
                <mxCell id="RkSsTfMrb2YXSXwpdujd-1" parent="RkSsTfMrb2YXSXwpdujd-0"/>
                <mxCell id="RkSsTfMrb2YXSXwpdujd-2" value="&lt;b&gt;Modèle de données relationnel&lt;br&gt;&lt;/b&gt;&lt;br&gt;Cas :&lt;br&gt;&lt;br&gt;On veut gérer un bâtiment avec des formations et pouvoir savoir à un instant donné, qui est dans le bâtiment et pour y faire quoi" style="rounded=0;whiteSpace=wrap;html=1;fontSize=16;" parent="RkSsTfMrb2YXSXwpdujd-1" vertex="1">
                    <mxGeometry x="40" y="40" width="760" height="130" as="geometry"/>
                </mxCell>
                <mxCell id="RkSsTfMrb2YXSXwpdujd-7" value="Salle" style="rounded=0;whiteSpace=wrap;html=1;fontSize=16;fillColor=#dae8fc;strokeColor=#000000;" parent="RkSsTfMrb2YXSXwpdujd-1" vertex="1">
                    <mxGeometry x="20" y="200" width="200" height="40" as="geometry"/>
                </mxCell>
                <mxCell id="RkSsTfMrb2YXSXwpdujd-8" value="Formateur" style="rounded=0;whiteSpace=wrap;html=1;fontSize=16;fillColor=#dae8fc;strokeColor=#000000;" parent="RkSsTfMrb2YXSXwpdujd-1" vertex="1">
                    <mxGeometry x="320" y="380" width="200" height="40" as="geometry"/>
                </mxCell>
                <mxCell id="RkSsTfMrb2YXSXwpdujd-10" value="Etudiant" style="rounded=0;whiteSpace=wrap;html=1;fontSize=16;fillColor=#dae8fc;strokeColor=#000000;" parent="RkSsTfMrb2YXSXwpdujd-1" vertex="1">
                    <mxGeometry x="320" y="580" width="200" height="40" as="geometry"/>
                </mxCell>
                <mxCell id="RkSsTfMrb2YXSXwpdujd-11" value="Formation" style="rounded=0;whiteSpace=wrap;html=1;fontSize=16;fillColor=#dae8fc;strokeColor=#000000;" parent="RkSsTfMrb2YXSXwpdujd-1" vertex="1">
                    <mxGeometry x="20" y="440" width="200" height="40" as="geometry"/>
                </mxCell>
                <mxCell id="RkSsTfMrb2YXSXwpdujd-30" style="edgeStyle=orthogonalEdgeStyle;rounded=0;orthogonalLoop=1;jettySize=auto;html=1;exitX=1;exitY=1;exitDx=0;exitDy=0;entryX=0;entryY=0.5;entryDx=0;entryDy=0;fontSize=14;endArrow=none;endFill=0;" parent="RkSsTfMrb2YXSXwpdujd-1" source="RkSsTfMrb2YXSXwpdujd-11" target="RkSsTfMrb2YXSXwpdujd-14" edge="1">
                    <mxGeometry relative="1" as="geometry">
                        <Array as="points">
                            <mxPoint x="270" y="480"/>
                            <mxPoint x="270" y="480"/>
                        </Array>
                    </mxGeometry>
                </mxCell>
                <mxCell id="RkSsTfMrb2YXSXwpdujd-33" style="edgeStyle=orthogonalEdgeStyle;rounded=0;orthogonalLoop=1;jettySize=auto;html=1;exitX=1;exitY=0.75;exitDx=0;exitDy=0;entryX=0;entryY=0;entryDx=0;entryDy=0;fontSize=14;endArrow=none;endFill=0;" parent="RkSsTfMrb2YXSXwpdujd-1" source="RkSsTfMrb2YXSXwpdujd-12" target="RkSsTfMrb2YXSXwpdujd-15" edge="1">
                    <mxGeometry relative="1" as="geometry">
                        <Array as="points">
                            <mxPoint x="220" y="620"/>
                        </Array>
                    </mxGeometry>
                </mxCell>
                <mxCell id="RkSsTfMrb2YXSXwpdujd-38" style="edgeStyle=orthogonalEdgeStyle;rounded=0;orthogonalLoop=1;jettySize=auto;html=1;exitX=0.5;exitY=1;exitDx=0;exitDy=0;entryX=0.5;entryY=0;entryDx=0;entryDy=0;fontSize=14;endArrow=none;endFill=0;" parent="RkSsTfMrb2YXSXwpdujd-1" source="RkSsTfMrb2YXSXwpdujd-12" target="RkSsTfMrb2YXSXwpdujd-36" edge="1">
                    <mxGeometry relative="1" as="geometry"/>
                </mxCell>
                <mxCell id="RkSsTfMrb2YXSXwpdujd-12" value="Nom&lt;br&gt;Date de début&lt;br&gt;Date de fin&lt;br&gt;Jours de présence&lt;br&gt;Capacité en étudiants&lt;br&gt;Commentaires" style="rounded=0;whiteSpace=wrap;html=1;fontSize=16;align=left;" parent="RkSsTfMrb2YXSXwpdujd-1" vertex="1">
                    <mxGeometry x="20" y="480" width="200" height="190" as="geometry"/>
                </mxCell>
                <mxCell id="RkSsTfMrb2YXSXwpdujd-21" style="edgeStyle=orthogonalEdgeStyle;rounded=0;orthogonalLoop=1;jettySize=auto;html=1;entryX=0.5;entryY=0;entryDx=0;entryDy=0;fontSize=16;endArrow=none;endFill=0;" parent="RkSsTfMrb2YXSXwpdujd-1" source="RkSsTfMrb2YXSXwpdujd-13" target="RkSsTfMrb2YXSXwpdujd-11" edge="1">
                    <mxGeometry relative="1" as="geometry"/>
                </mxCell>
                <mxCell id="RkSsTfMrb2YXSXwpdujd-13" value="Nom&lt;br&gt;Etage&lt;br&gt;Capacité d'accueil&lt;br&gt;Commentaires" style="rounded=0;whiteSpace=wrap;html=1;fontSize=16;align=left;" parent="RkSsTfMrb2YXSXwpdujd-1" vertex="1">
                    <mxGeometry x="20" y="240" width="200" height="120" as="geometry"/>
                </mxCell>
                <mxCell id="RkSsTfMrb2YXSXwpdujd-48" style="edgeStyle=orthogonalEdgeStyle;rounded=0;orthogonalLoop=1;jettySize=auto;html=1;exitX=1;exitY=0.75;exitDx=0;exitDy=0;entryX=0;entryY=0.25;entryDx=0;entryDy=0;fontSize=14;endArrow=none;endFill=0;" parent="RkSsTfMrb2YXSXwpdujd-1" source="RkSsTfMrb2YXSXwpdujd-14" target="RkSsTfMrb2YXSXwpdujd-53" edge="1">
                    <mxGeometry relative="1" as="geometry"/>
                </mxCell>
                <mxCell id="RkSsTfMrb2YXSXwpdujd-14" value="Nom&lt;br&gt;Prénom&lt;br&gt;Statut&lt;br&gt;Compétences&lt;br&gt;Commentaires" style="rounded=0;whiteSpace=wrap;html=1;fontSize=16;align=left;" parent="RkSsTfMrb2YXSXwpdujd-1" vertex="1">
                    <mxGeometry x="320" y="420" width="200" height="120" as="geometry"/>
                </mxCell>
                <mxCell id="RkSsTfMrb2YXSXwpdujd-15" value="Nom&lt;br&gt;Prénom&lt;br&gt;Date de naissance&lt;br&gt;Sexe&lt;br&gt;Formation(s) suivie(s)&lt;br&gt;Financement&lt;br&gt;Commentaires" style="rounded=0;whiteSpace=wrap;html=1;fontSize=16;align=left;" parent="RkSsTfMrb2YXSXwpdujd-1" vertex="1">
                    <mxGeometry x="320" y="620" width="200" height="160" as="geometry"/>
                </mxCell>
                <mxCell id="RkSsTfMrb2YXSXwpdujd-16" value="&lt;b&gt;Légende&lt;/b&gt;" style="rounded=0;whiteSpace=wrap;html=1;fontSize=16;align=center;verticalAlign=top;" parent="RkSsTfMrb2YXSXwpdujd-1" vertex="1">
                    <mxGeometry x="880" y="40" width="200" height="240" as="geometry"/>
                </mxCell>
                <mxCell id="RkSsTfMrb2YXSXwpdujd-17" value="Entité&lt;br&gt;Table&lt;br&gt;Modèle (classe)" style="rounded=0;whiteSpace=wrap;html=1;fontSize=16;fillColor=#dae8fc;strokeColor=#000000;" parent="RkSsTfMrb2YXSXwpdujd-1" vertex="1">
                    <mxGeometry x="890" y="80" width="180" height="70" as="geometry"/>
                </mxCell>
                <mxCell id="RkSsTfMrb2YXSXwpdujd-18" value="Caractéristiques&lt;br&gt;Champs (colonnes)&lt;br&gt;Propriétés" style="rounded=0;whiteSpace=wrap;html=1;fontSize=16;strokeColor=#000000;align=left;" parent="RkSsTfMrb2YXSXwpdujd-1" vertex="1">
                    <mxGeometry x="890" y="150" width="180" height="70" as="geometry"/>
                </mxCell>
                <mxCell id="RkSsTfMrb2YXSXwpdujd-20" value="Relation" style="edgeStyle=orthogonalEdgeStyle;rounded=0;orthogonalLoop=1;jettySize=auto;html=1;fontSize=16;endArrow=none;endFill=0;" parent="RkSsTfMrb2YXSXwpdujd-1" edge="1">
                    <mxGeometry relative="1" as="geometry">
                        <mxPoint x="900" y="250" as="sourcePoint"/>
                        <mxPoint x="1060" y="250" as="targetPoint"/>
                    </mxGeometry>
                </mxCell>
                <mxCell id="RkSsTfMrb2YXSXwpdujd-23" value="&lt;b&gt;Types de relations&lt;br&gt;(cardinalités)&lt;br&gt;&lt;/b&gt;" style="rounded=0;whiteSpace=wrap;html=1;fontSize=16;align=center;verticalAlign=top;" parent="RkSsTfMrb2YXSXwpdujd-1" vertex="1">
                    <mxGeometry x="880" y="320" width="200" height="180" as="geometry"/>
                </mxCell>
                <mxCell id="RkSsTfMrb2YXSXwpdujd-22" value="0 - 1" style="edgeStyle=orthogonalEdgeStyle;rounded=0;orthogonalLoop=1;jettySize=auto;html=1;fontSize=16;endArrow=none;endFill=0;" parent="RkSsTfMrb2YXSXwpdujd-1" edge="1">
                    <mxGeometry relative="1" as="geometry">
                        <mxPoint x="900" y="390" as="sourcePoint"/>
                        <mxPoint x="1060" y="390" as="targetPoint"/>
                    </mxGeometry>
                </mxCell>
                <mxCell id="RkSsTfMrb2YXSXwpdujd-24" value="0 - n" style="edgeStyle=orthogonalEdgeStyle;rounded=0;orthogonalLoop=1;jettySize=auto;html=1;fontSize=16;endArrow=none;endFill=0;" parent="RkSsTfMrb2YXSXwpdujd-1" edge="1">
                    <mxGeometry relative="1" as="geometry">
                        <mxPoint x="900" y="420" as="sourcePoint"/>
                        <mxPoint x="1060" y="420" as="targetPoint"/>
                    </mxGeometry>
                </mxCell>
                <mxCell id="RkSsTfMrb2YXSXwpdujd-25" value="1 - 1" style="edgeStyle=orthogonalEdgeStyle;rounded=0;orthogonalLoop=1;jettySize=auto;html=1;fontSize=16;endArrow=none;endFill=0;" parent="RkSsTfMrb2YXSXwpdujd-1" edge="1">
                    <mxGeometry relative="1" as="geometry">
                        <mxPoint x="900" y="450" as="sourcePoint"/>
                        <mxPoint x="1060" y="450" as="targetPoint"/>
                    </mxGeometry>
                </mxCell>
                <mxCell id="RkSsTfMrb2YXSXwpdujd-26" value="1 - n" style="edgeStyle=orthogonalEdgeStyle;rounded=0;orthogonalLoop=1;jettySize=auto;html=1;fontSize=16;endArrow=none;endFill=0;" parent="RkSsTfMrb2YXSXwpdujd-1" edge="1">
                    <mxGeometry relative="1" as="geometry">
                        <mxPoint x="900" y="480" as="sourcePoint"/>
                        <mxPoint x="1060" y="480" as="targetPoint"/>
                    </mxGeometry>
                </mxCell>
                <mxCell id="RkSsTfMrb2YXSXwpdujd-27" value="1 salle peut accueillir 1 ou plusieurs formations → 0-n&lt;br&gt;1 formation a lieue dans 1 et une seule salle → 1-1&lt;br&gt;1 formation est dispensée par au moins 1 formateur → 1-n&lt;br&gt;1 formateur peut intervenir sur 1 ou plusieurs formations → 0-n&lt;br&gt;1 formation doit concerner au moins 1 étudiant → 1-n&lt;br&gt;1 étufiant doit participer à au moins 1 formation → 1-n&lt;br&gt;&lt;br&gt;1 formation possède 1 et une seule catégorie → 1-1&lt;br&gt;1 catégorie peut être associée à 1 ou plusieurs formations → 0-n&lt;br&gt;1 formateur possède 1 et un seul statut → 1-1&lt;br&gt;1 statut peut être associé à 1 ou plusieurs formateurs → 0-n&lt;br&gt;1 formateur a 1 ou plusieurs compétences → 1-n&lt;br&gt;1 compétence peut être associée à 1 ou plusieurs formateurs → 0-n" style="rounded=0;whiteSpace=wrap;html=1;fontSize=16;strokeColor=#000000;align=left;verticalAlign=top;" parent="RkSsTfMrb2YXSXwpdujd-1" vertex="1">
                    <mxGeometry x="40" y="960" width="760" height="320" as="geometry"/>
                </mxCell>
                <mxCell id="RkSsTfMrb2YXSXwpdujd-28" value="0-n" style="rounded=0;whiteSpace=wrap;html=1;fontSize=14;strokeColor=#000000;align=center;verticalAlign=top;spacing=0;" parent="RkSsTfMrb2YXSXwpdujd-1" vertex="1">
                    <mxGeometry x="120" y="360" width="40" height="20" as="geometry"/>
                </mxCell>
                <mxCell id="RkSsTfMrb2YXSXwpdujd-29" value="1-1" style="rounded=0;whiteSpace=wrap;html=1;fontSize=14;strokeColor=#000000;align=center;verticalAlign=top;spacing=0;" parent="RkSsTfMrb2YXSXwpdujd-1" vertex="1">
                    <mxGeometry x="120" y="420" width="40" height="20" as="geometry"/>
                </mxCell>
                <mxCell id="RkSsTfMrb2YXSXwpdujd-31" value="1-n" style="rounded=0;whiteSpace=wrap;html=1;fontSize=14;strokeColor=#000000;align=center;verticalAlign=top;spacing=0;" parent="RkSsTfMrb2YXSXwpdujd-1" vertex="1">
                    <mxGeometry x="220" y="480" width="40" height="20" as="geometry"/>
                </mxCell>
                <mxCell id="RkSsTfMrb2YXSXwpdujd-32" value="0-n" style="rounded=0;whiteSpace=wrap;html=1;fontSize=14;strokeColor=#000000;align=center;verticalAlign=top;spacing=0;" parent="RkSsTfMrb2YXSXwpdujd-1" vertex="1">
                    <mxGeometry x="280" y="460" width="40" height="20" as="geometry"/>
                </mxCell>
                <mxCell id="RkSsTfMrb2YXSXwpdujd-34" value="1-n" style="rounded=0;whiteSpace=wrap;html=1;fontSize=14;strokeColor=#000000;align=center;verticalAlign=top;spacing=0;" parent="RkSsTfMrb2YXSXwpdujd-1" vertex="1">
                    <mxGeometry x="220" y="620" width="40" height="20" as="geometry"/>
                </mxCell>
                <mxCell id="RkSsTfMrb2YXSXwpdujd-35" value="1-n" style="rounded=0;whiteSpace=wrap;html=1;fontSize=14;strokeColor=#000000;align=center;verticalAlign=top;spacing=0;" parent="RkSsTfMrb2YXSXwpdujd-1" vertex="1">
                    <mxGeometry x="280" y="600" width="40" height="20" as="geometry"/>
                </mxCell>
                <mxCell id="RkSsTfMrb2YXSXwpdujd-36" value="Catégorie" style="rounded=0;whiteSpace=wrap;html=1;fontSize=16;fillColor=#dae8fc;strokeColor=#000000;" parent="RkSsTfMrb2YXSXwpdujd-1" vertex="1">
                    <mxGeometry x="20" y="720" width="200" height="40" as="geometry"/>
                </mxCell>
                <mxCell id="RkSsTfMrb2YXSXwpdujd-37" value="Nom" style="rounded=0;whiteSpace=wrap;html=1;fontSize=16;align=left;" parent="RkSsTfMrb2YXSXwpdujd-1" vertex="1">
                    <mxGeometry x="20" y="760" width="200" height="50" as="geometry"/>
                </mxCell>
                <mxCell id="RkSsTfMrb2YXSXwpdujd-39" value="1-1" style="rounded=0;whiteSpace=wrap;html=1;fontSize=14;strokeColor=#000000;align=center;verticalAlign=top;spacing=0;" parent="RkSsTfMrb2YXSXwpdujd-1" vertex="1">
                    <mxGeometry x="80" y="670" width="40" height="20" as="geometry"/>
                </mxCell>
                <mxCell id="RkSsTfMrb2YXSXwpdujd-40" value="0-n" style="rounded=0;whiteSpace=wrap;html=1;fontSize=14;strokeColor=#000000;align=center;verticalAlign=top;spacing=0;" parent="RkSsTfMrb2YXSXwpdujd-1" vertex="1">
                    <mxGeometry x="120" y="700" width="40" height="20" as="geometry"/>
                </mxCell>
                <mxCell id="RkSsTfMrb2YXSXwpdujd-41" style="edgeStyle=orthogonalEdgeStyle;rounded=0;orthogonalLoop=1;jettySize=auto;html=1;exitX=0.5;exitY=0;exitDx=0;exitDy=0;entryX=0.5;entryY=1;entryDx=0;entryDy=0;fontSize=14;endArrow=none;endFill=0;" parent="RkSsTfMrb2YXSXwpdujd-1" source="RkSsTfMrb2YXSXwpdujd-8" target="RkSsTfMrb2YXSXwpdujd-43" edge="1">
                    <mxGeometry relative="1" as="geometry">
                        <mxPoint x="420" y="190" as="sourcePoint"/>
                    </mxGeometry>
                </mxCell>
                <mxCell id="RkSsTfMrb2YXSXwpdujd-42" value="Statut" style="rounded=0;whiteSpace=wrap;html=1;fontSize=16;fillColor=#dae8fc;strokeColor=#000000;" parent="RkSsTfMrb2YXSXwpdujd-1" vertex="1">
                    <mxGeometry x="320" y="240" width="200" height="40" as="geometry"/>
                </mxCell>
                <mxCell id="RkSsTfMrb2YXSXwpdujd-43" value="Nom" style="rounded=0;whiteSpace=wrap;html=1;fontSize=16;align=left;" parent="RkSsTfMrb2YXSXwpdujd-1" vertex="1">
                    <mxGeometry x="320" y="280" width="200" height="50" as="geometry"/>
                </mxCell>
                <mxCell id="RkSsTfMrb2YXSXwpdujd-44" value="1-1" style="rounded=0;whiteSpace=wrap;html=1;fontSize=14;strokeColor=#000000;align=center;verticalAlign=top;spacing=0;" parent="RkSsTfMrb2YXSXwpdujd-1" vertex="1">
                    <mxGeometry x="380" y="360" width="40" height="20" as="geometry"/>
                </mxCell>
                <mxCell id="RkSsTfMrb2YXSXwpdujd-45" value="0-n" style="rounded=0;whiteSpace=wrap;html=1;fontSize=14;strokeColor=#000000;align=center;verticalAlign=top;spacing=0;" parent="RkSsTfMrb2YXSXwpdujd-1" vertex="1">
                    <mxGeometry x="420" y="330" width="40" height="20" as="geometry"/>
                </mxCell>
                <mxCell id="RkSsTfMrb2YXSXwpdujd-46" value="Compétence" style="rounded=0;whiteSpace=wrap;html=1;fontSize=16;fillColor=#dae8fc;strokeColor=#000000;" parent="RkSsTfMrb2YXSXwpdujd-1" vertex="1">
                    <mxGeometry x="600" y="630" width="200" height="40" as="geometry"/>
                </mxCell>
                <mxCell id="RkSsTfMrb2YXSXwpdujd-47" value="Nom" style="rounded=0;whiteSpace=wrap;html=1;fontSize=16;align=left;" parent="RkSsTfMrb2YXSXwpdujd-1" vertex="1">
                    <mxGeometry x="600" y="670" width="200" height="50" as="geometry"/>
                </mxCell>
                <mxCell id="RkSsTfMrb2YXSXwpdujd-49" value="1-n" style="rounded=0;whiteSpace=wrap;html=1;fontSize=14;strokeColor=#000000;align=center;verticalAlign=top;spacing=0;" parent="RkSsTfMrb2YXSXwpdujd-1" vertex="1">
                    <mxGeometry x="520" y="490" width="40" height="20" as="geometry"/>
                </mxCell>
                <mxCell id="RkSsTfMrb2YXSXwpdujd-55" style="edgeStyle=orthogonalEdgeStyle;rounded=0;orthogonalLoop=1;jettySize=auto;html=1;exitX=0;exitY=1;exitDx=0;exitDy=0;entryX=0.5;entryY=1;entryDx=0;entryDy=0;fontSize=14;endArrow=none;endFill=0;" parent="RkSsTfMrb2YXSXwpdujd-1" source="RkSsTfMrb2YXSXwpdujd-50" target="RkSsTfMrb2YXSXwpdujd-53" edge="1">
                    <mxGeometry relative="1" as="geometry">
                        <Array as="points">
                            <mxPoint x="700" y="570"/>
                            <mxPoint x="700" y="570"/>
                        </Array>
                    </mxGeometry>
                </mxCell>
                <mxCell id="RkSsTfMrb2YXSXwpdujd-50" value="0-n" style="rounded=0;whiteSpace=wrap;html=1;fontSize=14;strokeColor=#000000;align=center;verticalAlign=top;spacing=0;" parent="RkSsTfMrb2YXSXwpdujd-1" vertex="1">
                    <mxGeometry x="700" y="610" width="40" height="20" as="geometry"/>
                </mxCell>
                <mxCell id="RkSsTfMrb2YXSXwpdujd-52" value="FormateurCompétence" style="rounded=0;whiteSpace=wrap;html=1;fontSize=16;fillColor=#dae8fc;strokeColor=#000000;" parent="RkSsTfMrb2YXSXwpdujd-1" vertex="1">
                    <mxGeometry x="600" y="475" width="200" height="40" as="geometry"/>
                </mxCell>
                <mxCell id="RkSsTfMrb2YXSXwpdujd-53" value="FormateurID&lt;br&gt;CompétenceID" style="rounded=0;whiteSpace=wrap;html=1;fontSize=16;align=left;" parent="RkSsTfMrb2YXSXwpdujd-1" vertex="1">
                    <mxGeometry x="600" y="515" width="200" height="50" as="geometry"/>
                </mxCell>
                <mxCell id="RkSsTfMrb2YXSXwpdujd-54" value="1-1" style="rounded=0;whiteSpace=wrap;html=1;fontSize=14;strokeColor=#000000;align=center;verticalAlign=top;spacing=0;" parent="RkSsTfMrb2YXSXwpdujd-1" vertex="1">
                    <mxGeometry x="560" y="525" width="40" height="20" as="geometry"/>
                </mxCell>
                <mxCell id="RkSsTfMrb2YXSXwpdujd-56" value="1-1" style="rounded=0;whiteSpace=wrap;html=1;fontSize=14;strokeColor=#000000;align=center;verticalAlign=top;spacing=0;" parent="RkSsTfMrb2YXSXwpdujd-1" vertex="1">
                    <mxGeometry x="660" y="565" width="40" height="20" as="geometry"/>
                </mxCell>
                <mxCell id="THfrA0R3KsdHlotWDXfm-0" value="Financement" style="rounded=0;whiteSpace=wrap;html=1;fontSize=16;fillColor=#dae8fc;strokeColor=#000000;" parent="RkSsTfMrb2YXSXwpdujd-1" vertex="1">
                    <mxGeometry x="600" y="800" width="200" height="40" as="geometry"/>
                </mxCell>
                <mxCell id="THfrA0R3KsdHlotWDXfm-1" value="Nom" style="rounded=0;whiteSpace=wrap;html=1;fontSize=16;align=left;" parent="RkSsTfMrb2YXSXwpdujd-1" vertex="1">
                    <mxGeometry x="600" y="840" width="200" height="50" as="geometry"/>
                </mxCell>
                <mxCell id="THfrA0R3KsdHlotWDXfm-6" style="edgeStyle=orthogonalEdgeStyle;rounded=0;orthogonalLoop=1;jettySize=auto;html=1;exitX=1;exitY=0.5;exitDx=0;exitDy=0;entryX=0;entryY=0;entryDx=0;entryDy=0;endArrow=none;endFill=0;" parent="RkSsTfMrb2YXSXwpdujd-1" source="THfrA0R3KsdHlotWDXfm-2" target="THfrA0R3KsdHlotWDXfm-1" edge="1">
                    <mxGeometry relative="1" as="geometry">
                        <Array as="points">
                            <mxPoint x="580" y="840"/>
                            <mxPoint x="580" y="840"/>
                        </Array>
                    </mxGeometry>
                </mxCell>
                <mxCell id="THfrA0R3KsdHlotWDXfm-7" style="edgeStyle=orthogonalEdgeStyle;rounded=0;orthogonalLoop=1;jettySize=auto;html=1;exitX=0.5;exitY=0;exitDx=0;exitDy=0;entryX=0.5;entryY=1;entryDx=0;entryDy=0;endArrow=none;endFill=0;" parent="RkSsTfMrb2YXSXwpdujd-1" source="THfrA0R3KsdHlotWDXfm-2" target="RkSsTfMrb2YXSXwpdujd-15" edge="1">
                    <mxGeometry relative="1" as="geometry"/>
                </mxCell>
                <mxCell id="THfrA0R3KsdHlotWDXfm-2" value="EtudiantFinancement" style="rounded=0;whiteSpace=wrap;html=1;fontSize=16;fillColor=#dae8fc;strokeColor=#000000;" parent="RkSsTfMrb2YXSXwpdujd-1" vertex="1">
                    <mxGeometry x="320" y="820" width="200" height="40" as="geometry"/>
                </mxCell>
                <mxCell id="THfrA0R3KsdHlotWDXfm-3" value="EtudiantD&lt;br&gt;FinancementID" style="rounded=0;whiteSpace=wrap;html=1;fontSize=16;align=left;" parent="RkSsTfMrb2YXSXwpdujd-1" vertex="1">
                    <mxGeometry x="320" y="860" width="200" height="50" as="geometry"/>
                </mxCell>
                <mxCell id="THfrA0R3KsdHlotWDXfm-4" value="1-1" style="rounded=0;whiteSpace=wrap;html=1;fontSize=14;strokeColor=#000000;align=center;verticalAlign=top;spacing=0;" parent="RkSsTfMrb2YXSXwpdujd-1" vertex="1">
                    <mxGeometry x="380" y="800" width="40" height="20" as="geometry"/>
                </mxCell>
                <mxCell id="THfrA0R3KsdHlotWDXfm-8" value="1-1" style="rounded=0;whiteSpace=wrap;html=1;fontSize=14;strokeColor=#000000;align=center;verticalAlign=top;spacing=0;" parent="RkSsTfMrb2YXSXwpdujd-1" vertex="1">
                    <mxGeometry x="520" y="840" width="40" height="20" as="geometry"/>
                </mxCell>
                <mxCell id="THfrA0R3KsdHlotWDXfm-10" value="1-n" style="rounded=0;whiteSpace=wrap;html=1;fontSize=14;strokeColor=#000000;align=center;verticalAlign=top;spacing=0;" parent="RkSsTfMrb2YXSXwpdujd-1" vertex="1">
                    <mxGeometry x="420" y="780" width="40" height="20" as="geometry"/>
                </mxCell>
                <mxCell id="THfrA0R3KsdHlotWDXfm-11" value="0-n" style="rounded=0;whiteSpace=wrap;html=1;fontSize=14;strokeColor=#000000;align=center;verticalAlign=top;spacing=0;" parent="RkSsTfMrb2YXSXwpdujd-1" vertex="1">
                    <mxGeometry x="560" y="820" width="40" height="20" as="geometry"/>
                </mxCell>
            </root>
        </mxGraphModel>
    </diagram>
    <diagram id="nH74vEm0JgLFPprQ9lT3" name="SQL">
        <mxGraphModel dx="531" dy="437" grid="1" gridSize="10" guides="1" tooltips="1" connect="1" arrows="1" fold="1" page="1" pageScale="1" pageWidth="827" pageHeight="1169" math="0" shadow="0">
            <root>
                <mxCell id="zD9mNbCKYA1uL3fGXbPz-0"/>
                <mxCell id="zD9mNbCKYA1uL3fGXbPz-1" parent="zD9mNbCKYA1uL3fGXbPz-0"/>
                <mxCell id="zD9mNbCKYA1uL3fGXbPz-2" value="Create&lt;br&gt;Read&lt;br&gt;Update&lt;br&gt;Delete" style="rounded=0;whiteSpace=wrap;html=1;fontSize=30;align=left;" parent="zD9mNbCKYA1uL3fGXbPz-1" vertex="1">
                    <mxGeometry x="40" y="80" width="160" height="180" as="geometry"/>
                </mxCell>
                <mxCell id="zD9mNbCKYA1uL3fGXbPz-3" value="INSERT INTO&lt;br&gt;SELECT FROM&lt;br&gt;UPDATE&lt;br&gt;DELETE" style="rounded=0;whiteSpace=wrap;html=1;fontSize=30;align=left;" parent="zD9mNbCKYA1uL3fGXbPz-1" vertex="1">
                    <mxGeometry x="200" y="80" width="560" height="180" as="geometry"/>
                </mxCell>
            </root>
        </mxGraphModel>
    </diagram>
</mxfile>